<svg width="278" height="443" viewBox="0 0 278 443" fill="none" xmlns="http://www.w3.org/2000/svg">
<path d="M149.225 245.116C160.243 234.097 178.108 234.097 189.127 245.116L258.049 314.038C269.067 325.057 269.067 342.921 258.049 353.94L189.127 422.862C178.108 433.881 160.243 433.881 149.225 422.862L80.3029 353.94C69.2842 342.921 69.2842 325.057 80.3029 314.038L149.225 245.116Z" fill="#3B85DB"/>
<path d="M54.7863 54.8407C84.8372 24.7898 133.559 24.7898 163.61 54.8407C193.661 84.8916 193.661 133.614 163.61 163.665C133.559 193.716 84.8372 193.716 54.7863 163.665C24.7353 133.614 24.7353 84.8916 54.7863 54.8407Z" fill="#EB3669"/>
</svg>
