<svg id="svg" version="1.1" xmlns="http://www.w3.org/2000/svg" xmlns:xlink="http://www.w3.org/1999/xlink" width="400" height="344.3850267379679" viewBox="0, 0, 400,344.3850267379679"><g id="svgg"><path id="path0" d="M124.031 48.602 C 122.799 48.780,120.086 49.169,118.002 49.465 C 115.917 49.762,113.282 50.238,112.145 50.524 C 106.725 51.886,105.771 52.149,103.359 52.948 C 96.229 55.309,88.396 58.898,82.562 62.476 C 80.503 63.739,78.694 64.772,78.542 64.772 C 78.390 64.772,78.214 64.888,78.151 65.030 C 78.088 65.172,76.178 66.684,73.908 68.389 C 59.874 78.930,46.642 96.482,41.573 111.283 C 41.281 112.136,40.489 114.384,39.815 116.278 C 39.140 118.172,38.587 119.988,38.587 120.314 C 38.587 120.640,38.372 121.570,38.109 122.382 C 36.864 126.228,35.682 133.838,35.152 141.430 C 34.682 148.156,34.655 293.411,35.123 293.701 C 35.551 293.965,88.249 293.950,88.513 293.686 C 88.625 293.574,88.794 282.837,88.889 269.825 L 89.061 246.167 133.719 246.080 L 178.376 245.992 178.590 247.286 C 178.708 247.997,178.805 258.773,178.808 271.232 L 178.811 293.885 202.842 293.941 C 229.992 294.005,232.220 293.993,232.429 293.784 C 232.762 293.451,232.545 141.005,232.207 138.157 C 231.549 132.601,230.786 127.643,230.325 125.926 C 230.071 124.978,229.591 123.040,229.258 121.619 C 226.221 108.627,216.727 91.189,207.125 80.965 C 205.968 79.733,205.016 78.629,205.009 78.512 C 204.997 78.321,199.483 73.234,197.389 71.481 C 196.930 71.098,194.960 69.576,193.010 68.100 C 189.943 65.777,188.604 64.875,184.849 62.600 C 184.475 62.373,183.389 61.715,182.437 61.136 C 174.849 56.528,161.180 51.475,152.171 49.948 C 151.000 49.749,148.648 49.350,146.942 49.060 C 143.229 48.429,127.404 48.112,124.031 48.602 M137.468 102.491 C 158.251 103.999,174.508 119.607,178.205 141.602 C 178.683 144.446,178.855 190.517,178.392 191.645 C 178.075 192.415,90.070 192.602,89.302 191.835 C 88.793 191.326,88.725 149.274,89.222 142.844 C 90.693 123.851,104.522 108.007,123.686 103.358 C 125.903 102.820,132.849 102.007,133.850 102.168 C 134.229 102.229,135.857 102.375,137.468 102.491 " stroke="none" fill="#ca15db" fill-rule="evenodd"></path><path id="path1" d="M235.056 48.438 C 234.717 48.594,234.625 54.301,234.625 75.283 L 234.625 101.929 245.392 102.084 C 258.207 102.268,263.319 102.704,269.036 104.097 C 273.140 105.097,273.802 105.305,276.193 106.336 C 276.790 106.594,277.383 106.804,277.510 106.804 C 278.133 106.804,285.736 110.549,287.855 111.899 C 289.182 112.744,290.655 113.670,291.128 113.955 C 310.669 125.748,323.644 152.533,321.465 176.579 C 318.695 207.129,296.994 232.159,268.045 238.192 C 266.624 238.488,264.531 238.923,263.394 239.158 C 262.070 239.432,256.557 239.654,248.062 239.776 L 234.798 239.966 234.625 266.322 C 234.443 294.186,234.422 293.733,235.908 293.931 C 237.747 294.175,261.700 293.591,264.944 293.222 C 269.638 292.688,275.123 291.854,277.519 291.308 C 278.656 291.049,280.749 290.582,282.171 290.269 C 285.549 289.527,294.055 286.868,297.330 285.531 C 302.558 283.395,303.474 282.974,309.311 280.017 C 327.228 270.943,344.228 255.651,355.367 238.587 C 356.480 236.882,357.830 234.821,358.367 234.007 C 362.815 227.262,369.945 210.316,371.734 202.239 C 372.135 200.428,372.367 199.441,373.610 194.259 C 373.912 192.996,374.160 191.380,374.160 190.668 C 374.160 189.956,374.382 188.121,374.653 186.590 C 376.007 178.937,375.925 159.986,374.512 154.177 C 374.327 153.419,374.173 152.189,374.168 151.444 C 374.164 150.698,373.943 149.225,373.677 148.171 C 373.412 147.116,372.938 145.090,372.625 143.669 C 371.745 139.676,371.080 137.353,369.321 132.127 C 366.665 124.239,364.453 119.233,359.823 110.634 C 357.088 105.552,349.430 94.918,344.909 89.922 C 343.623 88.501,341.916 86.580,341.116 85.654 C 339.395 83.663,339.635 83.895,335.850 80.552 C 321.033 67.464,306.202 59.028,288.717 53.742 C 286.727 53.140,284.711 52.514,284.238 52.350 C 283.764 52.186,282.756 51.950,281.998 51.826 C 281.240 51.702,279.535 51.310,278.208 50.955 C 270.942 49.013,237.988 47.091,235.056 48.438 " stroke="none" fill="#5a1be0" fill-rule="evenodd"></path><path id="path2" d="M0.000 172.265 L 0.000 344.531 200.000 344.531 L 400.000 344.531 400.000 172.265 L 400.000 0.000 200.000 0.000 L 0.000 0.000 0.000 172.265 M147.976 48.428 C 154.977 49.548,161.751 51.219,166.753 53.060 C 168.363 53.653,170.069 54.260,170.543 54.411 C 172.456 55.017,182.994 60.410,186.224 62.436 C 197.477 69.492,206.708 78.199,215.363 89.922 C 220.504 96.885,227.629 111.859,229.625 119.897 C 229.931 121.128,230.396 122.911,230.659 123.859 C 231.151 125.637,232.249 131.987,232.951 137.123 C 233.235 139.195,233.391 154.614,233.487 189.823 C 233.562 217.197,233.680 239.652,233.750 239.722 C 233.820 239.792,234.190 239.682,234.573 239.477 C 235.032 239.231,239.127 239.105,246.575 239.106 C 269.933 239.111,282.302 235.121,297.158 222.789 C 318.553 205.027,326.576 173.300,316.408 146.658 C 312.171 135.554,303.687 124.244,294.401 117.318 C 293.643 116.753,292.791 116.095,292.506 115.856 C 290.494 114.163,281.272 109.141,277.175 107.506 C 276.796 107.355,275.866 106.985,275.108 106.684 C 273.507 106.048,267.318 104.363,265.805 104.151 C 265.237 104.072,263.280 103.783,261.458 103.511 C 259.074 103.154,254.861 103.015,246.453 103.015 C 237.820 103.015,234.655 102.907,234.350 102.601 C 233.847 102.099,233.754 48.712,234.254 47.921 C 234.621 47.342,264.170 47.628,267.183 48.241 C 268.131 48.433,270.146 48.733,271.662 48.906 C 276.068 49.411,285.157 51.678,292.594 54.127 C 293.684 54.487,294.738 54.780,294.935 54.780 C 295.133 54.780,296.411 55.298,297.776 55.930 C 299.142 56.562,301.189 57.446,302.326 57.894 C 307.847 60.071,322.516 68.380,325.237 70.872 C 325.521 71.132,327.087 72.339,328.716 73.554 C 338.152 80.589,348.639 92.020,356.377 103.704 C 360.169 109.429,365.891 119.792,365.891 120.933 C 365.891 121.126,366.041 121.553,366.223 121.882 C 367.719 124.581,371.612 135.791,372.773 140.741 C 374.363 147.522,374.662 149.225,375.958 158.829 C 376.546 163.187,376.539 179.299,375.946 183.635 C 374.665 193.018,374.453 194.194,372.755 201.378 C 371.805 205.394,368.635 214.966,367.257 217.977 C 366.665 219.270,365.863 221.180,365.474 222.222 C 365.085 223.264,364.653 224.272,364.515 224.462 C 364.377 224.651,363.286 226.667,362.091 228.941 C 360.897 231.214,359.656 233.463,359.334 233.936 C 359.012 234.410,357.583 236.581,356.159 238.760 C 345.710 254.750,330.205 269.368,314.018 278.493 C 312.111 279.568,310.441 280.448,310.307 280.448 C 310.173 280.448,309.486 280.805,308.779 281.242 C 305.367 283.350,295.304 287.361,287.855 289.581 C 286.908 289.863,285.391 290.327,284.484 290.611 C 283.577 290.896,282.502 291.128,282.094 291.128 C 281.687 291.128,280.258 291.425,278.919 291.789 C 277.581 292.152,274.625 292.702,272.351 293.013 C 270.078 293.323,267.287 293.742,266.150 293.945 C 262.285 294.635,234.328 294.752,234.070 294.080 C 233.872 293.564,233.795 293.561,233.261 294.044 C 232.737 294.518,229.616 294.568,205.311 294.490 L 177.950 294.401 177.778 270.629 L 177.606 246.856 133.764 246.769 C 109.651 246.721,89.886 246.721,89.842 246.769 C 89.798 246.817,89.682 257.554,89.584 270.629 L 89.406 294.401 62.532 294.496 C 47.752 294.548,35.306 294.506,34.874 294.401 L 34.090 294.211 34.199 216.098 C 34.283 155.944,34.406 137.430,34.734 135.573 C 34.969 134.246,35.401 131.688,35.694 129.888 C 35.987 128.088,36.539 125.375,36.921 123.859 C 37.303 122.343,37.761 120.482,37.939 119.724 C 39.020 115.116,43.932 103.152,46.496 98.880 C 46.666 98.596,47.623 96.991,48.622 95.313 C 50.165 92.723,53.568 87.841,56.579 83.899 C 58.996 80.735,66.744 73.027,70.629 69.921 C 72.050 68.785,73.740 67.433,74.385 66.916 C 78.583 63.555,94.917 54.436,96.741 54.436 C 96.923 54.436,98.429 53.888,100.088 53.219 C 111.999 48.418,134.093 46.207,147.976 48.428 M125.754 103.709 C 115.026 105.959,103.917 112.704,99.058 119.920 C 98.492 120.760,97.456 122.222,96.756 123.170 C 96.056 124.117,95.007 125.978,94.426 127.304 C 93.844 128.630,93.193 130.018,92.978 130.387 C 90.151 135.246,89.750 139.801,89.750 167.097 L 89.750 191.042 133.678 191.042 L 177.606 191.042 177.695 168.820 C 177.793 144.144,177.469 138.310,175.772 134.258 C 175.549 133.725,175.365 133.182,175.364 133.053 C 175.362 132.641,173.823 129.109,172.672 126.870 C 163.960 109.930,143.726 99.941,125.754 103.709 " stroke="none" fill="#040404" fill-rule="evenodd"></path><path id="path3" d="M131.180 48.146 C 132.743 48.210,135.301 48.210,136.865 48.146 C 138.428 48.082,137.149 48.030,134.022 48.030 C 130.896 48.030,129.617 48.082,131.180 48.146 M120.758 48.592 C 119.811 48.742,117.942 49.028,116.606 49.227 C 113.721 49.659,103.699 52.149,101.981 52.861 C 101.318 53.136,99.379 53.898,97.673 54.555 C 94.170 55.903,86.184 59.773,83.478 61.432 C 82.492 62.037,80.864 63.017,79.861 63.610 C 75.506 66.181,69.228 71.328,63.681 76.875 C 48.183 92.372,39.019 110.645,35.451 133.161 L 34.632 138.329 34.531 216.279 L 34.429 294.229 35.388 294.207 C 36.307 294.186,36.315 294.172,35.573 293.874 L 34.798 293.562 34.794 220.080 C 34.792 172.327,34.917 144.788,35.152 141.430 C 35.682 133.838,36.864 126.228,38.109 122.382 C 38.372 121.570,38.587 120.640,38.587 120.314 C 38.587 119.988,39.140 118.172,39.815 116.278 C 40.489 114.384,41.281 112.136,41.573 111.283 C 46.642 96.482,59.874 78.930,73.908 68.389 C 76.178 66.684,78.088 65.172,78.151 65.030 C 78.214 64.888,78.390 64.772,78.542 64.772 C 78.694 64.772,80.503 63.739,82.562 62.476 C 88.396 58.898,96.229 55.309,103.359 52.948 C 105.771 52.149,106.725 51.886,112.145 50.524 C 113.995 50.059,117.082 49.565,124.031 48.623 L 126.270 48.319 124.376 48.320 C 123.333 48.320,121.705 48.443,120.758 48.592 M142.980 48.588 C 144.212 48.729,146.150 48.934,147.287 49.044 L 149.354 49.243 147.115 48.755 C 145.883 48.486,143.945 48.281,142.808 48.299 L 140.741 48.332 142.980 48.588 M234.365 75.194 L 234.453 102.153 244.531 102.161 L 254.608 102.169 244.617 102.070 L 234.625 101.971 234.625 75.303 C 234.625 54.292,234.717 48.599,235.056 48.462 C 235.312 48.359,235.242 48.278,234.882 48.261 C 234.309 48.236,234.281 49.670,234.365 75.194 M259.690 48.487 C 260.495 48.559,261.813 48.559,262.618 48.487 C 263.424 48.414,262.765 48.355,261.154 48.355 C 259.543 48.355,258.885 48.414,259.690 48.487 M150.904 49.647 C 164.641 52.724,174.502 56.317,182.437 61.136 C 183.389 61.715,184.475 62.373,184.849 62.600 C 188.604 64.875,189.943 65.777,193.010 68.100 C 194.960 69.576,196.930 71.098,197.389 71.481 C 199.483 73.234,204.997 78.321,205.009 78.512 C 205.016 78.629,205.968 79.733,207.125 80.965 C 216.727 91.189,226.221 108.627,229.258 121.619 C 229.591 123.040,230.071 124.978,230.325 125.926 C 230.786 127.644,231.549 132.602,232.207 138.157 C 232.459 140.279,232.760 271.337,232.563 293.260 C 232.560 293.653,232.196 293.890,231.438 293.993 C 230.534 294.115,230.584 294.136,231.697 294.101 L 233.075 294.057 233.075 218.088 C 233.075 139.131,233.083 139.645,231.652 130.749 C 230.996 126.675,229.094 118.785,228.123 116.107 C 225.846 109.833,225.208 108.265,223.350 104.382 C 219.759 96.872,213.316 87.102,208.474 81.822 C 207.603 80.872,206.270 79.392,205.512 78.532 C 193.634 65.064,167.382 50.970,151.421 49.492 C 149.423 49.307,149.406 49.312,150.904 49.647 M279.587 51.319 C 280.248 51.619,282.093 51.814,281.797 51.553 C 281.718 51.483,281.034 51.332,280.276 51.217 C 279.315 51.070,279.106 51.101,279.587 51.319 M284.238 52.353 C 284.522 52.545,285.052 52.705,285.415 52.708 C 286.296 52.715,286.021 52.518,284.755 52.234 C 284.000 52.066,283.860 52.098,284.238 52.353 M287.511 53.402 C 287.890 53.565,288.432 53.698,288.717 53.698 C 289.042 53.698,288.979 53.589,288.544 53.402 C 288.165 53.239,287.623 53.106,287.339 53.106 C 287.013 53.106,287.076 53.216,287.511 53.402 M311.111 62.863 C 311.111 62.958,311.731 63.351,312.489 63.738 C 313.247 64.125,313.867 64.364,313.867 64.269 C 313.867 64.174,313.247 63.780,312.489 63.394 C 311.731 63.007,311.111 62.768,311.111 62.863 M326.615 72.819 C 326.615 72.919,327.584 73.743,328.768 74.651 C 329.953 75.559,332.039 77.274,333.405 78.461 C 334.771 79.649,335.969 80.620,336.067 80.620 C 336.166 80.620,335.513 79.961,334.618 79.156 C 333.722 78.351,332.911 77.607,332.817 77.503 C 332.355 76.998,326.615 72.662,326.615 72.819 M336.606 81.072 C 336.606 81.132,337.110 81.636,337.726 82.192 L 338.846 83.204 337.834 82.084 C 336.891 81.041,336.606 80.806,336.606 81.072 M340.052 84.518 C 340.052 84.577,340.556 85.081,341.171 85.638 L 342.291 86.649 341.279 85.530 C 340.336 84.486,340.052 84.252,340.052 84.518 M343.483 88.286 C 344.327 89.186,345.064 89.922,345.119 89.922 C 345.378 89.922,345.104 89.613,343.583 88.185 L 341.947 86.649 343.483 88.286 M351.751 98.450 C 352.391 99.255,352.977 99.914,353.053 99.914 C 353.296 99.914,351.820 97.975,351.193 97.472 C 350.860 97.204,351.111 97.644,351.751 98.450 M353.833 101.292 C 354.238 101.860,354.646 102.326,354.741 102.326 C 354.836 102.326,354.582 101.860,354.177 101.292 C 353.773 100.724,353.364 100.258,353.269 100.258 C 353.174 100.258,353.428 100.724,353.833 101.292 M131.266 102.343 C 129.795 102.510,130.251 102.570,133.305 102.614 C 135.468 102.645,137.173 102.614,137.094 102.545 C 136.778 102.270,133.046 102.141,131.266 102.343 M255.728 102.563 C 256.059 102.650,256.602 102.650,256.934 102.563 C 257.265 102.476,256.994 102.406,256.331 102.406 C 255.668 102.406,255.396 102.476,255.728 102.563 M124.203 103.227 C 104.864 107.972,90.070 124.429,89.397 141.947 L 89.272 145.220 89.581 142.294 C 91.635 122.871,105.852 107.532,125.675 103.353 C 127.480 102.972,128.200 102.719,127.476 102.719 C 126.813 102.720,125.340 102.948,124.203 103.227 M141.021 103.233 C 159.045 106.498,172.690 119.635,177.152 138.021 C 177.872 140.988,177.900 141.887,178.029 166.323 L 178.163 191.562 133.784 191.474 L 89.406 191.387 89.230 168.303 L 89.054 145.220 88.971 168.320 C 88.909 185.921,88.987 191.520,89.302 191.835 C 90.070 192.602,178.075 192.415,178.392 191.645 C 178.855 190.517,178.683 144.446,178.205 141.602 C 175.863 127.668,169.332 117.147,158.484 109.831 C 152.999 106.132,143.539 102.580,139.513 102.708 C 138.750 102.732,139.285 102.918,141.021 103.233 M264.427 103.359 C 265.885 103.730,267.136 103.730,265.978 103.359 C 265.504 103.207,264.729 103.086,264.255 103.090 C 263.481 103.096,263.499 103.123,264.427 103.359 M272.007 105.082 C 272.386 105.245,272.929 105.378,273.213 105.378 C 273.538 105.378,273.475 105.268,273.040 105.082 C 272.661 104.919,272.119 104.786,271.835 104.786 C 271.509 104.786,271.573 104.895,272.007 105.082 M294.574 116.527 C 294.574 116.595,295.310 117.255,296.210 117.995 C 297.110 118.735,297.537 118.983,297.158 118.548 C 296.488 117.777,294.574 116.281,294.574 116.527 M298.019 119.315 C 298.019 119.375,298.523 119.879,299.139 120.435 L 300.258 121.447 299.246 120.327 C 298.303 119.284,298.019 119.049,298.019 119.315 M365.227 121.447 C 365.227 121.637,365.448 122.179,365.719 122.653 C 365.990 123.127,366.212 123.359,366.212 123.170 C 366.212 122.980,365.990 122.438,365.719 121.964 C 365.448 121.490,365.227 121.258,365.227 121.447 M303.187 124.171 C 303.187 124.328,303.652 124.987,304.220 125.634 C 304.789 126.281,305.248 126.690,305.240 126.541 C 305.221 126.165,303.187 123.818,303.187 124.171 M373.175 146.425 C 373.175 146.710,373.308 147.252,373.471 147.631 C 373.658 148.066,373.767 148.129,373.767 147.804 C 373.767 147.519,373.634 146.977,373.471 146.598 C 373.285 146.163,373.175 146.100,373.175 146.425 M375.301 160.724 C 375.302 161.860,375.367 162.284,375.443 161.665 C 375.520 161.046,375.519 160.115,375.440 159.598 C 375.361 159.080,375.299 159.587,375.301 160.724 M321.189 164.858 C 321.193 165.616,321.264 165.885,321.346 165.457 C 321.429 165.028,321.425 164.408,321.339 164.079 C 321.253 163.749,321.186 164.100,321.189 164.858 M375.651 165.891 C 375.653 167.218,375.715 167.718,375.790 167.004 C 375.864 166.289,375.863 165.203,375.787 164.592 C 375.711 163.980,375.650 164.565,375.651 165.891 M321.573 171.404 C 321.574 173.299,321.632 174.030,321.701 173.029 C 321.771 172.028,321.771 170.477,321.700 169.584 C 321.629 168.690,321.572 169.509,321.573 171.404 M375.649 176.400 C 375.649 177.631,375.711 178.135,375.788 177.519 C 375.864 176.904,375.864 175.896,375.788 175.280 C 375.711 174.664,375.649 175.168,375.649 176.400 M321.182 177.433 C 321.182 178.096,321.253 178.368,321.340 178.036 C 321.427 177.705,321.427 177.162,321.340 176.830 C 321.253 176.499,321.182 176.770,321.182 177.433 M375.301 181.395 C 375.302 182.532,375.367 182.956,375.443 182.337 C 375.520 181.717,375.519 180.787,375.440 180.269 C 375.361 179.752,375.299 180.258,375.301 181.395 M320.838 180.879 C 320.838 181.542,320.909 181.813,320.995 181.481 C 321.082 181.150,321.082 180.607,320.995 180.276 C 320.909 179.944,320.838 180.215,320.838 180.879 M374.332 188.458 C 374.199 189.430,374.162 190.298,374.251 190.387 C 374.340 190.476,374.519 189.750,374.648 188.774 C 374.778 187.798,374.814 186.930,374.730 186.846 C 374.645 186.761,374.466 187.487,374.332 188.458 M318.731 190.239 C 318.709 190.555,318.602 191.098,318.493 191.445 C 318.305 192.043,318.315 192.044,318.688 191.462 C 318.904 191.124,319.012 190.582,318.926 190.256 C 318.786 189.723,318.767 189.721,318.731 190.239 M373.323 194.857 C 373.197 195.362,373.160 195.841,373.241 195.922 C 373.322 196.004,373.492 195.657,373.619 195.152 C 373.746 194.647,373.783 194.167,373.702 194.086 C 373.620 194.005,373.450 194.352,373.323 194.857 M372.290 199.336 C 372.163 199.840,372.126 200.320,372.207 200.401 C 372.288 200.482,372.458 200.136,372.585 199.631 C 372.712 199.126,372.749 198.646,372.668 198.565 C 372.587 198.484,372.417 198.831,372.290 199.336 M367.652 214.681 C 367.440 215.290,367.327 215.848,367.400 215.922 C 367.474 215.996,367.708 215.558,367.920 214.949 C 368.133 214.340,368.246 213.781,368.172 213.708 C 368.099 213.634,367.865 214.072,367.652 214.681 M301.829 219.208 C 299.742 221.505,299.487 221.866,300.915 220.500 C 302.728 218.766,305.137 216.021,304.846 216.021 C 304.780 216.021,303.422 217.455,301.829 219.208 M365.603 219.653 C 365.026 220.920,365.136 221.190,365.760 220.038 C 366.051 219.501,366.225 218.996,366.147 218.917 C 366.068 218.838,365.823 219.170,365.603 219.653 M297.480 223.342 L 296.469 224.462 297.588 223.450 C 298.204 222.893,298.708 222.389,298.708 222.330 C 298.708 222.064,298.424 222.298,297.480 223.342 M270.629 237.382 C 270.194 237.568,270.131 237.678,270.457 237.678 C 270.741 237.678,271.283 237.544,271.662 237.382 C 272.097 237.195,272.160 237.085,271.835 237.085 C 271.550 237.085,271.008 237.219,270.629 237.382 M257.967 239.692 C 258.394 239.774,259.091 239.774,259.518 239.692 C 259.944 239.610,259.595 239.543,258.742 239.543 C 257.890 239.543,257.541 239.610,257.967 239.692 M234.361 266.064 C 234.405 280.512,234.483 288.148,234.533 283.032 C 234.771 258.820,234.773 239.793,234.539 239.793 C 234.397 239.793,234.317 251.615,234.361 266.064 M350.865 244.859 C 350.135 245.750,349.717 246.368,349.937 246.232 C 350.406 245.943,352.588 243.239,352.353 243.239 C 352.265 243.239,351.596 243.968,350.865 244.859 M89.119 246.225 C 88.992 246.351,88.887 256.777,88.884 269.394 C 88.879 295.049,88.964 293.795,87.217 293.980 C 86.107 294.098,86.151 294.120,87.595 294.171 L 89.229 294.229 89.317 270.370 L 89.406 246.512 133.678 246.512 L 177.950 246.512 178.039 270.370 L 178.127 294.229 202.500 294.145 L 226.873 294.062 202.842 293.971 L 178.811 293.880 178.808 271.229 C 178.805 258.772,178.708 247.997,178.590 247.287 L 178.377 245.995 133.862 245.995 C 109.380 245.995,89.245 246.098,89.119 246.225 M344.209 252.978 C 343.228 254.187,343.189 254.289,343.982 253.575 C 344.806 252.832,345.785 251.495,345.490 251.514 C 345.436 251.517,344.860 252.176,344.209 252.978 M340.040 257.623 L 338.157 259.604 340.138 257.721 C 341.978 255.971,342.277 255.642,342.021 255.642 C 341.967 255.642,341.076 256.533,340.040 257.623 M332.989 263.944 C 329.681 266.848,328.526 268.032,330.922 266.064 C 333.216 264.178,336.132 261.530,335.917 261.527 C 335.823 261.526,334.505 262.614,332.989 263.944 M320.661 273.358 C 318.627 274.765,318.143 275.259,319.644 274.395 C 320.801 273.729,322.788 272.199,322.481 272.211 C 322.386 272.214,321.567 272.730,320.661 273.358 M312.748 278.233 C 311.460 278.932,311.538 279.223,312.834 278.553 C 313.402 278.259,313.867 277.945,313.867 277.855 C 313.867 277.633,313.830 277.646,312.748 278.233 M298.363 285.099 C 297.890 285.370,297.657 285.591,297.847 285.591 C 298.036 285.591,298.579 285.370,299.053 285.099 C 299.526 284.828,299.759 284.607,299.569 284.607 C 299.380 284.607,298.837 284.828,298.363 285.099 M278.208 291.128 C 277.330 291.506,278.236 291.506,279.414 291.128 C 280.107 290.907,280.140 290.851,279.587 290.842 C 279.208 290.837,278.587 290.965,278.208 291.128 M274.164 292.061 C 274.593 292.143,275.213 292.140,275.542 292.054 C 275.872 291.968,275.521 291.900,274.763 291.904 C 274.005 291.908,273.736 291.979,274.164 292.061 M234.339 293.368 C 234.430 293.889,234.751 294.070,235.662 294.110 C 236.439 294.145,236.560 294.105,236.003 294.000 C 235.530 293.910,234.934 293.575,234.681 293.257 C 234.258 292.727,234.229 292.737,234.339 293.368 M267.097 293.088 C 267.429 293.175,267.972 293.175,268.303 293.088 C 268.635 293.002,268.363 292.931,267.700 292.931 C 267.037 292.931,266.766 293.002,267.097 293.088 M263.652 293.433 C 263.984 293.520,264.526 293.520,264.858 293.433 C 265.189 293.346,264.918 293.275,264.255 293.275 C 263.592 293.275,263.320 293.346,263.652 293.433 M257.629 293.790 C 258.248 293.866,259.178 293.865,259.696 293.786 C 260.214 293.708,259.707 293.645,258.570 293.647 C 257.433 293.649,257.010 293.713,257.629 293.790 M49.009 294.143 C 55.784 294.195,66.869 294.195,73.643 294.143 C 80.418 294.091,74.875 294.048,61.326 294.048 C 47.778 294.048,42.235 294.091,49.009 294.143 M241.947 294.142 C 244.363 294.201,248.316 294.201,250.732 294.142 C 253.148 294.083,251.171 294.034,246.339 294.034 C 241.507 294.034,239.531 294.083,241.947 294.142 " stroke="none" fill="#6c0c74" fill-rule="evenodd"></path><path id="path4" d="M124.653 47.870 C 122.437 47.986,120.499 48.207,120.346 48.359 C 120.194 48.512,121.154 48.532,122.481 48.404 C 123.807 48.276,128.148 48.054,132.127 47.912 C 139.150 47.661,139.206 47.653,134.022 47.656 C 131.085 47.658,126.869 47.754,124.653 47.870 M234.166 48.037 C 233.720 49.199,233.898 102.150,234.350 102.601 C 234.655 102.907,237.820 103.015,246.453 103.015 C 254.861 103.015,259.074 103.154,261.458 103.511 C 263.280 103.783,265.237 104.072,265.805 104.151 C 267.318 104.363,273.507 106.048,275.108 106.684 C 275.866 106.985,276.796 107.355,277.175 107.506 C 281.272 109.141,290.494 114.163,292.506 115.856 C 292.791 116.095,293.643 116.753,294.401 117.318 C 307.479 127.072,317.150 143.070,320.015 159.690 C 320.766 164.044,320.763 178.514,320.011 182.601 C 315.147 209.033,295.769 230.293,270.629 236.781 C 263.185 238.702,262.309 238.789,247.717 239.051 C 240.612 239.179,234.526 239.415,234.195 239.575 C 233.654 239.837,233.583 239.622,233.509 237.505 C 233.463 236.205,233.346 248.398,233.250 264.599 L 233.075 294.057 205.601 294.145 L 178.127 294.233 178.039 270.372 L 177.950 246.512 133.678 246.512 L 89.406 246.512 89.317 270.368 L 89.229 294.225 62.013 294.316 L 34.798 294.408 62.102 294.405 L 89.406 294.401 89.584 270.629 C 89.682 257.554,89.798 246.817,89.842 246.769 C 89.886 246.721,109.651 246.721,133.764 246.769 L 177.606 246.856 177.778 270.629 L 177.950 294.401 205.311 294.490 C 229.616 294.568,232.737 294.518,233.261 294.044 C 233.795 293.561,233.872 293.564,234.070 294.080 C 234.328 294.752,262.285 294.635,266.150 293.945 C 267.287 293.742,270.078 293.323,272.351 293.013 C 274.625 292.702,277.581 292.152,278.919 291.789 C 280.258 291.425,281.687 291.128,282.094 291.128 C 282.502 291.128,283.577 290.896,284.484 290.611 C 285.391 290.327,286.908 289.863,287.855 289.581 C 295.304 287.361,305.367 283.350,308.779 281.242 C 309.486 280.805,310.173 280.448,310.307 280.448 C 310.441 280.448,312.111 279.568,314.018 278.493 C 330.205 269.368,345.710 254.750,356.159 238.760 C 357.583 236.581,359.012 234.410,359.334 233.936 C 359.656 233.463,360.897 231.214,362.091 228.941 C 363.286 226.667,364.377 224.651,364.515 224.462 C 364.653 224.272,365.085 223.264,365.474 222.222 C 365.863 221.180,366.665 219.270,367.257 217.977 C 368.635 214.966,371.805 205.394,372.755 201.378 C 374.453 194.194,374.665 193.018,375.946 183.635 C 376.539 179.299,376.546 163.187,375.958 158.829 C 374.662 149.225,374.363 147.522,372.773 140.741 C 371.612 135.791,367.719 124.581,366.223 121.882 C 366.041 121.553,365.891 121.126,365.891 120.933 C 365.891 119.792,360.169 109.429,356.377 103.704 C 348.639 92.020,338.152 80.589,328.716 73.554 C 327.087 72.339,325.521 71.132,325.237 70.872 C 322.516 68.380,307.847 60.071,302.326 57.894 C 301.189 57.446,299.142 56.562,297.776 55.930 C 296.411 55.298,295.133 54.780,294.935 54.780 C 294.738 54.780,293.684 54.487,292.594 54.127 C 285.157 51.678,276.068 49.411,271.662 48.906 C 270.146 48.733,268.131 48.433,267.183 48.240 C 263.704 47.532,234.429 47.352,234.166 48.037 M141.774 48.132 C 163.177 49.084,191.422 62.556,205.512 78.532 C 206.270 79.392,207.603 80.872,208.474 81.822 C 212.382 86.083,222.222 100.585,222.222 102.082 C 222.222 102.279,222.311 102.351,222.420 102.243 C 222.747 101.916,217.655 93.026,215.363 89.922 C 206.708 78.199,197.477 69.492,186.224 62.436 C 182.994 60.410,172.456 55.017,170.543 54.411 C 170.069 54.260,168.363 53.653,166.753 53.060 C 159.294 50.315,147.109 47.806,141.947 47.952 L 139.363 48.025 141.774 48.132 M266.453 48.753 C 268.371 49.039,271.102 49.436,272.524 49.637 C 273.945 49.838,276.038 50.219,277.175 50.485 C 278.312 50.750,280.637 51.294,282.343 51.693 C 295.221 54.705,309.353 60.948,321.274 68.890 C 324.219 70.852,331.753 76.487,333.025 77.680 C 333.234 77.876,334.810 79.318,336.528 80.885 C 353.392 96.272,367.678 120.574,372.422 141.947 C 372.821 143.747,373.295 145.770,373.475 146.444 C 376.445 157.552,376.450 184.312,373.483 195.675 C 373.307 196.348,372.905 198.062,372.589 199.483 C 369.103 215.154,360.620 232.890,350.354 245.972 C 324.090 279.439,289.810 294.788,242.722 294.166 L 234.453 294.057 234.365 266.925 L 234.277 239.793 245.390 239.782 C 266.502 239.761,278.065 236.878,290.459 228.544 C 334.850 198.693,330.745 132.957,283.032 109.597 C 271.058 103.735,265.833 102.681,247.201 102.367 L 234.453 102.153 234.365 75.194 L 234.277 48.234 248.622 48.234 C 259.625 48.234,263.779 48.355,266.453 48.753 M116.107 48.920 C 111.855 49.482,99.479 52.970,100.513 53.315 C 100.726 53.386,101.338 53.218,101.872 52.942 C 102.887 52.417,114.548 49.523,117.829 48.982 C 120.088 48.609,118.806 48.563,116.107 48.920 M97.502 54.146 C 91.485 56.318,79.025 63.200,74.385 66.916 C 73.740 67.433,72.050 68.785,70.629 69.921 C 66.744 73.027,58.996 80.735,56.579 83.899 C 51.969 89.934,46.582 98.032,46.939 98.389 C 47.027 98.477,47.927 97.190,48.940 95.528 C 56.574 82.994,69.327 69.829,79.861 63.610 C 80.864 63.017,82.492 62.038,83.478 61.433 C 86.019 59.876,94.453 55.762,97.416 54.636 C 98.790 54.114,99.914 53.623,99.914 53.544 C 99.914 53.319,99.523 53.417,97.502 54.146 M46.263 99.311 C 44.466 101.632,37.847 118.151,37.923 120.122 C 37.936 120.472,38.227 119.828,38.568 118.691 C 40.242 113.112,42.426 107.732,45.525 101.550 C 46.790 99.027,47.018 98.335,46.263 99.311 M125.926 103.274 C 124.410 103.567,123.363 103.875,123.600 103.957 C 123.837 104.038,124.845 103.911,125.839 103.674 C 126.834 103.437,130.129 103.143,133.161 103.019 L 138.674 102.796 133.678 102.768 C 130.468 102.750,127.697 102.931,125.926 103.274 M222.682 102.929 C 223.717 104.637,226.181 110.635,228.142 116.212 C 228.528 117.312,228.922 118.135,229.017 118.040 C 229.440 117.617,223.328 102.670,222.732 102.670 C 222.619 102.670,222.596 102.786,222.682 102.929 M140.568 103.524 C 141.611 103.796,142.851 104.012,143.325 104.004 L 144.186 103.989 143.258 103.709 C 142.748 103.555,141.507 103.339,140.502 103.229 L 138.674 103.029 140.568 103.524 M119.253 105.098 C 112.926 107.287,99.519 116.172,100.724 117.377 C 100.811 117.463,101.754 116.688,102.820 115.655 C 107.382 111.237,113.973 107.222,119.638 105.409 C 122.748 104.414,123.636 104.010,122.567 104.074 C 122.330 104.088,120.839 104.549,119.253 105.098 M144.387 104.184 C 144.466 104.259,145.960 104.797,147.708 105.380 C 159.658 109.368,170.086 119.359,174.697 131.239 C 174.948 131.888,175.214 132.240,175.286 132.023 C 175.493 131.402,172.327 125.201,170.111 121.890 C 166.316 116.215,159.842 110.598,153.316 107.316 C 150.205 105.751,143.592 103.432,144.387 104.184 M99.514 118.777 C 95.892 122.704,91.861 130.717,90.457 136.779 C 89.414 141.280,89.199 147.386,89.303 169.509 L 89.406 191.387 133.764 191.474 L 178.122 191.562 178.085 168.046 C 178.064 155.113,177.948 143.600,177.827 142.463 C 177.705 141.326,177.606 151.792,177.606 165.719 L 177.606 191.042 133.678 191.042 L 89.750 191.042 89.750 167.097 C 89.750 139.801,90.151 135.246,92.978 130.387 C 93.193 130.018,93.837 128.646,94.410 127.339 C 95.364 125.162,96.302 123.694,99.499 119.366 C 100.790 117.619,100.796 117.387,99.514 118.777 M229.143 118.863 C 229.134 119.147,229.342 120.155,229.605 121.102 C 229.869 122.050,230.096 122.515,230.110 122.136 C 230.124 121.757,229.916 120.749,229.647 119.897 C 229.379 119.044,229.152 118.579,229.143 118.863 M37.368 121.837 C 37.248 122.380,36.930 123.624,36.662 124.601 C 36.395 125.577,36.190 126.740,36.208 127.185 C 36.226 127.629,36.615 126.457,37.072 124.579 C 37.529 122.701,37.832 121.094,37.745 121.007 C 37.658 120.920,37.489 121.294,37.368 121.837 M230.366 124.031 C 230.484 124.694,230.705 125.547,230.858 125.926 L 231.136 126.615 231.132 125.926 C 231.130 125.547,230.908 124.694,230.640 124.031 L 230.152 122.825 230.366 124.031 M231.237 127.821 C 231.223 128.295,231.419 129.690,231.672 130.922 C 231.925 132.153,232.143 132.773,232.156 132.300 C 232.170 131.826,231.975 130.431,231.722 129.199 C 231.469 127.967,231.251 127.347,231.237 127.821 M35.499 130.677 C 35.261 132.067,35.128 133.505,35.204 133.872 C 35.279 134.239,35.537 133.165,35.777 131.486 C 36.307 127.769,36.100 127.166,35.499 130.677 M175.394 132.880 C 175.352 133.490,176.047 135.179,176.254 134.972 C 176.353 134.873,176.207 134.270,175.928 133.632 C 175.650 132.994,175.410 132.656,175.394 132.880 M232.460 136.090 C 232.970 143.432,233.206 145.366,233.028 140.741 C 232.932 138.277,232.720 135.564,232.556 134.711 C 232.338 133.581,232.312 133.954,232.460 136.090 M34.616 136.348 C 34.475 137.059,34.336 172.911,34.307 216.021 L 34.256 294.401 34.484 216.021 C 34.609 172.911,34.825 137.059,34.964 136.348 C 35.104 135.637,35.140 135.056,35.045 135.056 C 34.950 135.056,34.757 135.637,34.616 136.348 M176.615 137.255 C 176.821 139.123,177.399 140.981,177.378 139.707 C 177.372 139.328,177.156 138.243,176.898 137.295 L 176.430 135.573 176.615 137.255 M233.414 190.525 C 233.414 215.065,233.455 225.103,233.506 212.834 C 233.556 200.564,233.556 180.487,233.506 168.217 C 233.455 155.947,233.414 165.986,233.414 190.525 " stroke="none" fill="#34075b" fill-rule="evenodd"></path></g></svg>